<svg version="1.0" xmlns="http://www.w3.org/2000/svg"
 width="500.000000pt" height="500.000000pt" viewBox="0 0 500.000000 500.000000"
 preserveAspectRatio="xMidYMid meet">

<g transform="translate(0.000000,500.000000) scale(0.100000,-0.100000)"
fill="#000000" stroke="none">
<path d="M1936 3850 c-44 -5 -113 -16 -155 -24 -42 -8 -96 -18 -121 -21 -51
-7 -187 -43 -211 -55 -9 -5 -34 -12 -55 -15 -50 -9 -168 -48 -172 -57 -2 -5
-9 -8 -16 -8 -24 0 -88 -114 -121 -216 -15 -48 -15 -53 2 -87 13 -26 23 -35
38 -32 11 2 58 9 105 15 47 7 119 18 160 27 100 19 310 50 440 63 58 6 143 15
190 20 119 13 631 4 840 -15 258 -23 563 -70 647 -101 l42 -15 5 -62 c3 -34 8
-120 11 -191 4 -72 8 -133 11 -138 3 -4 21 -8 41 -8 63 0 274 -40 433 -82 142
-38 166 -42 285 -42 125 -1 132 0 190 29 82 41 205 166 205 209 0 11 -48 4
-150 -24 -106 -28 -201 -23 -375 21 -66 16 -217 52 -335 79 -229 52 -292 70
-297 87 -2 6 29 19 68 28 164 40 274 123 376 284 30 47 73 112 94 143 42 61
49 81 21 55 -9 -9 -40 -21 -67 -28 -28 -6 -60 -15 -73 -20 -35 -14 -42 -11
-42 15 0 35 -23 50 -59 38 -16 -6 -87 -49 -157 -97 -71 -47 -139 -88 -151 -92
-23 -5 -23 -8 -17 -85 7 -80 7 -80 -14 -69 -12 7 -22 15 -22 19 0 4 -20 18
-45 31 -25 13 -45 28 -45 32 0 5 -7 9 -15 9 -9 0 -27 7 -40 16 -13 9 -29 13
-35 9 -5 -3 -10 -1 -10 4 0 6 -11 11 -23 11 -13 0 -27 3 -30 7 -4 3 -18 7 -32
9 -59 6 -241 46 -250 55 -5 5 -18 9 -28 9 -38 0 -117 34 -117 51 0 49 306 26
499 -37 50 -17 71 -13 71 13 -1 18 -22 53 -33 53 -3 0 -27 14 -52 31 -87 59
-219 88 -605 135 -147 18 -685 27 -804 14z m-185 -210 c31 0 22 -17 -13 -25
-58 -13 -110 -13 -136 1 l-25 13 24 5 c52 12 75 14 103 10 16 -2 37 -4 47 -4z
m-155 -39 c-3 -5 -17 -8 -31 -8 -14 0 -28 3 -31 8 -3 5 11 9 31 9 20 0 34 -4
31 -9z"/>
<path d="M989 3428 c0 -2 -2 -26 -3 -54 -2 -28 -7 -66 -11 -84 -4 -18 -3 -30
1 -27 5 3 10 -15 10 -40 1 -26 7 -49 15 -54 11 -7 12 -9 1 -9 -8 0 -12 -6 -9
-12 2 -7 -5 -23 -16 -35 -11 -13 -15 -23 -9 -23 7 0 9 -7 5 -17 -3 -10 -3 -15
1 -11 15 13 33 -17 29 -49 -2 -18 1 -33 7 -33 5 0 7 -13 4 -30 -4 -20 -2 -30
5 -30 7 0 10 -3 8 -7 -7 -12 9 -92 33 -158 12 -33 22 -71 24 -85 1 -14 5 -30
8 -35 3 -6 12 -38 18 -72 7 -35 17 -63 21 -63 5 0 9 6 9 13 0 7 6 22 14 33 15
19 15 19 36 -2 l22 -21 -28 -27 c-40 -36 -91 -59 -141 -62 -48 -3 -66 -11 -58
-25 13 -20 147 -5 218 26 13 5 17 2 17 -13 0 -11 5 -22 12 -24 6 -2 -14 -15
-46 -29 -47 -20 -56 -27 -51 -44 3 -11 8 -36 11 -55 3 -19 19 -71 36 -115 17
-44 34 -89 38 -100 21 -54 28 -105 21 -153 -6 -38 -4 -58 6 -72 8 -11 12 -24
8 -29 -3 -5 5 -12 17 -14 18 -3 16 -4 -7 -5 -16 -1 -47 5 -69 13 l-38 13 6
-31 c13 -63 39 -102 71 -105 44 -3 58 11 64 65 6 45 8 48 37 51 25 2 46 -8
103 -51 39 -29 110 -75 157 -102 79 -44 85 -49 80 -74 -3 -14 3 -68 13 -119
21 -97 32 -116 81 -126 82 -18 305 -36 505 -41 314 -7 360 -12 423 -42 29 -14
56 -31 59 -39 3 -8 11 -14 19 -14 8 0 14 -4 14 -10 0 -5 17 -16 38 -25 20 -9
51 -23 68 -32 26 -12 39 -13 75 -3 24 7 49 13 54 14 33 8 157 74 198 107 55
43 80 48 111 22 24 -21 -22 45 -61 88 l-23 26 20 18 c11 10 20 25 20 34 0 9
-11 0 -26 -21 -19 -26 -37 -39 -68 -47 -23 -6 -60 -25 -82 -42 -54 -43 -132
-79 -174 -79 -84 1 -186 86 -214 180 -18 59 -11 109 30 213 34 87 69 132 133
172 46 29 65 35 112 35 32 0 64 6 71 13 26 23 57 37 73 31 9 -4 27 -23 41 -43
37 -54 311 -337 375 -386 112 -87 219 -139 319 -156 107 -18 282 25 425 105
68 38 185 141 185 163 0 20 -48 23 -121 8 -40 -9 -79 -13 -86 -11 -7 3 -13 2
-13 -3 0 -5 -19 -12 -42 -15 -74 -11 -80 -26 -8 -20 74 8 77 -3 4 -14 -77 -11
-191 -2 -299 23 -136 31 -235 91 -446 270 -52 44 -116 96 -142 115 -26 18 -45
35 -42 38 8 8 108 -61 205 -143 167 -139 326 -242 347 -222 3 4 7 35 9 69 l2
63 44 -2 43 -1 -51 17 c-28 9 -111 51 -185 91 -129 72 -381 170 -436 170 -19
0 -22 5 -19 28 2 15 1 21 -1 14 -3 -7 -9 -10 -14 -6 -5 3 -6 10 -3 16 5 7 -14
9 -60 6 -36 -3 -69 -2 -72 3 -2 4 -10 6 -17 4 -7 -2 -30 -6 -52 -9 -22 -2 -62
-9 -90 -16 -27 -6 -65 -13 -82 -15 -18 -2 -86 -12 -150 -24 -246 -43 -321 -49
-617 -50 -159 0 -292 -4 -295 -8 -8 -11 -71 -13 -71 -2 0 5 -18 8 -39 6 -22
-2 -37 1 -34 6 3 4 -4 11 -16 14 -12 3 -21 9 -21 14 0 5 -5 9 -10 9 -20 0 -91
51 -101 73 -5 12 -19 38 -32 59 -12 20 -41 68 -64 106 -24 39 -43 79 -43 89 0
11 -4 23 -9 28 -10 12 -28 84 -36 146 -4 34 -14 53 -38 75 -42 40 -101 82
-118 86 -13 3 -14 0 -19 -44 -4 -38 -37 116 -69 322 -17 107 -38 233 -46 280
-8 47 -19 118 -26 158 -9 59 -16 85 -20 70z m8 -130 c-3 -8 -6 -5 -6 6 -1 11
2 17 5 13 3 -3 4 -12 1 -19z m883 -1551 c78 -31 315 -53 450 -43 88 7 236 29
305 46 85 20 95 6 22 -32 -46 -23 -217 -72 -287 -83 -25 -3 -90 -15 -144 -27
-87 -18 -123 -20 -275 -15 -97 2 -184 8 -195 12 -17 7 -18 16 -12 79 3 39 9
81 12 93 6 21 8 21 33 9 14 -8 55 -25 91 -39z"/>
<path d="M1584 3106 c-18 -8 -35 -26 -42 -42 -44 -116 -24 -258 50 -347 57
-67 87 -81 167 -74 53 4 86 16 185 65 176 88 169 78 95 137 -228 181 -338 255
-399 268 -14 3 -39 0 -56 -7z m56 -89 c0 -18 -36 -51 -44 -39 -6 10 21 52 35
52 5 0 9 -6 9 -13z"/>
<path d="M2950 3103 c-13 -5 -35 -18 -161 -100 -42 -27 -243 -192 -247 -203
-4 -9 222 -115 287 -134 30 -9 75 -16 100 -16 40 0 49 5 87 44 54 56 90 162
79 234 -9 61 -37 125 -69 157 -24 24 -45 29 -76 18z m14 -49 c11 -29 6 -43
-19 -60 -21 -14 -31 -15 -50 -6 -29 13 -32 38 -8 64 20 22 69 24 77 2z"/>
<path d="M2299 976 c-2 -2 -40 -7 -83 -10 -45 -3 -90 -13 -103 -22 -13 -8 -37
-17 -52 -19 -93 -11 -176 -105 -186 -209 -2 -16 -10 -33 -19 -38 -9 -5 -16
-22 -16 -38 0 -22 -15 -44 -60 -90 -57 -58 -60 -63 -43 -76 32 -26 63 -34 133
-34 76 0 161 15 201 36 15 7 71 73 124 145 119 161 147 193 190 213 31 15 38
15 82 0 88 -30 246 -97 364 -155 150 -74 262 -121 474 -199 94 -34 211 -77
260 -95 50 -19 115 -36 145 -39 55 -6 55 -6 -11 8 -102 22 -444 168 -574 246
-27 17 -64 37 -82 45 -17 8 -34 19 -37 23 -3 5 -34 23 -70 41 -35 17 -86 49
-112 71 -27 22 -52 40 -56 40 -3 0 -10 9 -13 20 -4 14 -15 20 -36 20 -18 0
-33 7 -41 20 -7 11 -18 20 -24 20 -6 0 -19 9 -30 21 -11 12 -26 18 -37 15 -11
-3 -38 3 -61 14 -37 16 -215 37 -227 26z"/>
</g>
</svg>
